<svg width="26" height="20" viewBox="0 0 26 20" fill="none" xmlns="http://www.w3.org/2000/svg">
<g filter="url(#filter0_d)">
<path d="M11 11.718L5.3 5.26951L4.25 6.45739L11 14.0938L22.25 1.36648L21.2 0.09375L11 11.718Z" fill="#68B738"/>
<path d="M10.6254 12.0491L11.0014 12.4745L11.3758 12.0478L21.1883 0.865211L21.5926 1.35528L11 13.3388L4.91733 6.45739L5.3 6.02447L10.6254 12.0491Z" stroke="black"/>
<path d="M10.6254 12.0491L11.0014 12.4745L11.3758 12.0478L21.1883 0.865211L21.5926 1.35528L11 13.3388L4.91733 6.45739L5.3 6.02447L10.6254 12.0491Z" stroke="url(#paint0_linear)"/>
</g>
<defs>
<filter id="filter0_d" x="0.25" y="0.09375" width="26" height="22" filterUnits="userSpaceOnUse" color-interpolation-filters="sRGB">
<feFlood flood-opacity="0" result="BackgroundImageFix"/>
<feColorMatrix in="SourceAlpha" type="matrix" values="0 0 0 0 0 0 0 0 0 0 0 0 0 0 0 0 0 0 127 0"/>
<feOffset dy="4"/>
<feGaussianBlur stdDeviation="2"/>
<feColorMatrix type="matrix" values="0 0 0 0 0 0 0 0 0 0 0 0 0 0 0 0 0 0 0.25 0"/>
<feBlend mode="normal" in2="BackgroundImageFix" result="effect1_dropShadow"/>
<feBlend mode="normal" in="SourceGraphic" in2="effect1_dropShadow" result="shape"/>
</filter>
<linearGradient id="paint0_linear" x1="13.25" y1="0.09375" x2="13.25" y2="14.0938" gradientUnits="userSpaceOnUse">
<stop stop-color="white"/>
<stop offset="1" stop-color="white" stop-opacity="0"/>
</linearGradient>
</defs>
</svg>
