<svg width="26" height="20" fill="none" xmlns="http://www.w3.org/2000/svg"><g filter="url(#filter0_d)"><path d="M11 11.718L5.3 5.27 4.25 6.457 11 14.094 22.25 1.366 21.2.094 11 11.718z" fill="#68B738"/><path d="M10.625 12.05l.376.425.375-.427L21.188.865l.405.49L11 13.34 4.917 6.457l.383-.433 5.325 6.025z" stroke="#000"/><path d="M10.625 12.05l.376.425.375-.427L21.188.865l.405.49L11 13.34 4.917 6.457l.383-.433 5.325 6.025z" stroke="url(#paint0_linear)"/></g><defs><linearGradient id="paint0_linear" x1="13.25" y1=".094" x2="13.25" y2="14.094" gradientUnits="userSpaceOnUse"><stop stop-color="#fff"/><stop offset="1" stop-color="#fff" stop-opacity="0"/></linearGradient><filter id="filter0_d" x=".25" y=".094" width="26" height="22" filterUnits="userSpaceOnUse" color-interpolation-filters="sRGB"><feFlood flood-opacity="0" result="BackgroundImageFix"/><feColorMatrix in="SourceAlpha" values="0 0 0 0 0 0 0 0 0 0 0 0 0 0 0 0 0 0 127 0"/><feOffset dy="4"/><feGaussianBlur stdDeviation="2"/><feColorMatrix values="0 0 0 0 0 0 0 0 0 0 0 0 0 0 0 0 0 0 0.25 0"/><feBlend in2="BackgroundImageFix" result="effect1_dropShadow"/><feBlend in="SourceGraphic" in2="effect1_dropShadow" result="shape"/></filter></defs></svg>